Coordinates
version=1
nRows=10
nColumns=34
inDegrees=yes

Units are S.I. units (second, meters, Newtons, ...)
If the header above contains a line with 'inDegrees', this indicates whether rotational values are in degrees (yes) or radians (no).

endheader
time	pelvis_tilt	pelvis_list	pelvis_rotation	pelvis_tx	pelvis_ty	pelvis_tz	hip_flexion_r	hip_adduction_r	hip_rotation_r	knee_angle_r	ankle_angle_r	subtalar_angle_r	mtp_angle_r	hip_flexion_l	hip_adduction_l	hip_rotation_l	knee_angle_l	ankle_angle_l	subtalar_angle_l	mtp_angle_l	lumbar_extension	lumbar_bending	lumbar_rotation	arm_flex_r	arm_add_r	arm_rot_r	elbow_flex_r	pro_sup_r	arm_flex_l	arm_add_l	arm_rot_l	elbow_flex_l	pro_sup_l
     10.53333330	     -3.01732746	      2.01008860	    -63.35359663	      0.15953056	      0.99194896	     -0.12821839	     -0.20915866	     -1.41973835	     -2.06995242	      4.99670033	     10.27758071	      0.14569751	      0.00000000	     -1.04715709	      2.05452669	     -6.27342493	      4.64490768	     10.72312518	      3.83642947	      0.00000000	     -4.09297124	      3.91484809	     -1.77003916	    -60.85775761	    -82.58872411	   -113.38909850	     38.24771430	    119.74817918	     90.58502730	   -111.63648447	     44.46138824	     32.75177312	    119.74817918
     10.55000000	     -3.02043978	      2.00476904	    -63.34588032	      0.15975872	      0.99195927	     -0.12831792	     -0.21398428	     -1.44295074	     -2.07002045	      5.00595710	     10.27938025	      0.14143396	      0.00000000	     -1.04308739	      2.05976189	     -6.26906757	      4.65414728	     10.72147188	      3.83847542	      0.00000000	     -4.09418238	      3.95049204	     -1.75018777	    -60.86058543	    -82.59340975	   -113.38851807	     38.24504143	    119.74817918	     90.57022712	   -111.64651312	     44.44987508	     32.75240405	    119.74817918
     10.56666670	     -3.02048350	      2.00440688	    -63.34610886	      0.15974229	      0.99197096	     -0.12833519	     -0.21413802	     -1.44308617	     -2.07002916	      5.00629423	     10.27945193	      0.14130461	      0.00000000	     -1.04305067	      2.06046706	     -6.26888877	      4.65459188	     10.72140521	      3.83857925	      0.00000000	     -4.09396619	      3.95156367	     -1.75004250	    -60.86065024	    -82.59348648	   -113.38856849	     38.24487249	    119.74817918	     90.56967559	   -111.64669584	     44.44947807	     32.75244167	    119.74817918
     10.58333330	     -3.01999686	      2.00403243	    -63.34610583	      0.15975076	      0.99198964	     -0.12832811	     -0.21408211	     -1.44362481	     -2.07003796	      5.00649711	     10.27954857	      0.14114752	      0.00000000	     -1.04258289	      2.06102933	     -6.26867444	      4.65485373	     10.72132853	      3.83870380	      0.00000000	     -4.09409289	      3.95339673	     -1.74951412	    -60.86074935	    -82.59363840	   -113.38854391	     38.24466882	    119.74817918	     90.56906974	   -111.64690769	     44.44900115	     32.75249769	    119.74817918
     10.60000000	     -3.02533861	      1.99720861	    -63.34758787	      0.16006864	      0.99199789	     -0.12847342	     -0.21671457	     -1.47020457	     -2.07095057	      5.01487054	     10.28327127	      0.13478626	      0.00000000	     -1.03626803	      2.08346954	     -6.25993323	      4.67122652	     10.71707487	      3.84425591	      0.00000000	     -4.10048936	      4.01454596	     -1.72868057	    -60.86440423	    -82.60077503	   -113.38760440	     38.23619169	    119.74817918	     90.54666806	   -111.65369657	     44.43072530	     32.75376117	    119.74817918
     10.61666670	     -3.02710130	      1.99729080	    -63.34739919	      0.16002116	      0.99200143	     -0.12844674	     -0.21691589	     -1.47133002	     -2.07100715	      5.01522303	     10.28340250	      0.13453126	      0.00000000	     -1.03653795	      2.08424098	     -6.25958112	      4.67213405	     10.71688523	      3.84446804	      0.00000000	     -4.10093733	      4.01548189	     -1.72809763	    -60.86448296	    -82.60136424	   -113.38773172	     38.23589269	    119.74817918	     90.54586529	   -111.65384917	     44.43007423	     32.75370381	    119.74817918
     10.63333330	     -3.02807997	      1.99661533	    -63.34662949	      0.15998962	      0.99202280	     -0.12839796	     -0.21677938	     -1.47280010	     -2.07109218	      5.01534936	     10.28358393	      0.13421856	      0.00000000	     -1.03613798	      2.08552091	     -6.25912458	      4.67287815	     10.71664153	      3.84477639	      0.00000000	     -4.10138464	      4.01770867	     -1.72663461	    -60.86459658	    -82.60195464	   -113.38779544	     38.23546511	    119.74817918	     90.54495695	   -111.65440175	     44.42918962	     32.75356907	    119.74817717
     10.65000000	     -3.02973923	      1.99570297	    -63.34552241	      0.15992714	      0.99202364	     -0.12835055	     -0.21705660	     -1.47523639	     -2.07122623	      5.01554944	     10.28377243	      0.13384111	      0.00000000	     -1.03567564	      2.08780462	     -6.25860840	      4.67372655	     10.71631590	      3.84519154	      0.00000000	     -4.10165024	      4.02138182	     -1.72462948	    -60.86472258	    -82.60233295	   -113.38780186	     38.23489157	    119.74817918	     90.54401110	   -111.65531590	     44.42812794	     32.75338975	    119.74815229
     10.66666670	     -3.03653191	      1.98950566	    -63.34531180	      0.16031062	      0.99202465	     -0.12846973	     -0.22186912	     -1.50615667	     -2.07507483	      5.01835793	     10.28757702	      0.12633117	      0.00000000	     -1.02931290	      2.11285529	     -6.24683988	      4.69210377	     10.70856790	      3.85392522	      0.00000000	     -4.10285988	      4.08742611	     -1.69280591	    -60.86596446	    -82.60547260	   -113.39020682	     38.22095014	    119.74817918	     90.52334307	   -111.67571022	     44.40376897	     32.74955751	    119.74736510
     10.68333330	     -3.03788686	      1.98919846	    -63.34559888	      0.16025545	      0.99204947	     -0.12843177	     -0.22182791	     -1.50798061	     -2.07525062	      5.01828489	     10.28772231	      0.12600434	      0.00000000	     -1.02937013	      2.11333148	     -6.24632357	      4.69299821	     10.70823992	      3.85427043	      0.00000000	     -4.10300222	      4.08896180	     -1.69232497	    -60.86588505	    -82.60575587	   -113.39060191	     38.22036248	    119.74817918	     90.52246842	   -111.67644564	     44.40273519	     32.74937818	    119.74733774
